<?xml version="1.0" encoding="iso-8859-1"?>
<!-- Generator: Adobe Illustrator 19.0.0, SVG Export Plug-In . SVG Version: 6.00 Build 0)  -->
<svg version="1.1" id="Capa_1" xmlns="http://www.w3.org/2000/svg" xmlns:xlink="http://www.w3.org/1999/xlink" x="0px" y="0px"
	 viewBox="0 0 511.996 511.996" style="enable-background:new 0 0 511.996 511.996;" xml:space="preserve">
<g>
	<g>
		<path d="M256,159.984c-52.944,0-96,43.056-96,96c0,52.944,43.056,96,96,96s96-43.056,96-96
			C352,203.04,308.928,159.984,256,159.984z M256,319.984c-35.296,0-64-28.704-64-64s28.704-64,64-64s64,28.704,64,64
			C320,291.28,291.28,319.984,256,319.984z"/>
	</g>
</g>
<g>
	<g>
		<path d="M256,207.984v32c8.816,0,16,7.184,16,16c0,8.816-7.184,16-16,16c-8.816,0-16-7.184-16-16h-32c0,26.464,21.536,48,48,48
			s48-21.536,48-48S282.464,207.984,256,207.984z"/>
	</g>
</g>
<g>
	<g>
		<path d="M508.96,246.624c-3.68-5.088-91.744-124.928-231.024-134.08c-92.832-6.08-184.8,38.464-273.568,132.464
			c-5.824,6.16-5.824,15.808,0,21.968C87.808,355.312,174.096,400,261.184,400c5.584,0,11.168-0.192,16.752-0.56
			c139.28-9.152,227.344-128.992,231.024-134.08C513.008,259.76,513.008,252.208,508.96,246.624z M275.84,367.504
			c-79.104,5.232-159.072-32.304-237.584-111.52c78.432-79.136,158.336-116.576,237.328-111.536
			c102.72,6.64,176.928,84.32,199.952,111.552C452.592,283.248,378.736,360.736,275.84,367.504z"/>
	</g>
</g>
<g>
</g>
<g>
</g>
<g>
</g>
<g>
</g>
<g>
</g>
<g>
</g>
<g>
</g>
<g>
</g>
<g>
</g>
<g>
</g>
<g>
</g>
<g>
</g>
<g>
</g>
<g>
</g>
<g>
</g>
</svg>
