<?xml version="1.0" encoding="UTF-8"?>
<svg id="Calque_1" xmlns="http://www.w3.org/2000/svg" version="1.1">
  <!-- Generator: Adobe Illustrator 29.2.0, SVG Export Plug-In . SVG Version: 2.1.0 Build 108)  -->
  <defs>
    <style>
      .st0 {
        fill-rule: evenodd;
      }

      .st0, .st1 {
        fill: #1d1d1b;
      }
    </style>
  </defs>
  <g>
    <g>
      <path class="st1" d="M116.77,93.02c-1.13.85-2.32,1.47-3.59,1.88-1.27.41-2.65.61-4.16.61s-2.79-.22-4.01-.67c-1.22-.44-2.27-1.09-3.16-1.94-.93-.89-1.65-1.93-2.14-3.12-.49-1.19-.73-2.47-.73-3.83,0-2.88.96-5.2,2.88-6.95,1.92-1.75,4.46-2.63,7.62-2.63,1.15,0,2.3.14,3.42.41s2.28.7,3.45,1.27v4.06c-1.22-.63-2.39-1.09-3.5-1.4-1.11-.31-2.15-.46-3.12-.46-1.87,0-3.33.51-4.4,1.52s-1.59,2.41-1.59,4.19.51,3.12,1.52,4.14c1.01,1.03,2.37,1.54,4.09,1.54.46,0,.91-.05,1.36-.14.45-.1.9-.24,1.35-.42v-2.33h0v-3.48h4.71v7.75Z"/>
      <path class="st1" d="M118.41,95.18l8.06-18.5h5.34l7.21,18.5h-4.91l-1.32-3.6h-7.97l-1.48,3.6h-4.93ZM126.16,88.41h5.46l-2.59-7.03-2.87,7.03Z"/>
      <path class="st1" d="M144.85,83.56v11.62h-4.57v-18.5h4.06l9.92,11.03v-11.03h4.57v18.5h-3.62l-10.35-11.62Z"/>
      <path class="st1" d="M161.3,95.18v-18.5h6.94c1.98,0,3.52.15,4.61.45,1.09.3,2.1.79,3.01,1.48,1.18.89,2.08,1.96,2.68,3.19.61,1.24.91,2.61.91,4.12,0,1.65-.37,3.14-1.11,4.49-.74,1.34-1.81,2.47-3.21,3.36-.79.5-1.67.86-2.63,1.08-.96.22-2.38.32-4.27.32h-6.94ZM165.92,80.43v11.01h3.45c1.57,0,2.85-.51,3.84-1.54.99-1.03,1.49-2.35,1.49-3.97s-.5-2.94-1.49-3.97c-.99-1.02-2.27-1.53-3.84-1.53h-3.45Z"/>
      <path class="st1" d="M178.46,95.18l8.06-18.5h5.34l7.21,18.5h-4.91l-1.32-3.6h-7.97l-1.48,3.6h-4.93ZM186.21,88.41h5.46l-2.59-7.03-2.87,7.03Z"/>
      <path class="st1" d="M201.54,95.18v-18.5h6.84c2.51,0,4.37.44,5.57,1.31,1.2.87,1.8,2.23,1.8,4.06,0,1.02-.26,1.9-.79,2.62s-1.34,1.34-2.43,1.84c.46.17.87.45,1.24.84.37.39.68.89.96,1.49l2.95,6.33h-5.22l-2.35-5.33c-.38-.85-.81-1.43-1.3-1.74-.48-.32-1.17-.48-2.06-.48-.07,0-.16,0-.28.01-.11,0-.2.01-.26.01v7.52h-4.64ZM208.4,84.28c.85,0,1.49-.18,1.91-.54.42-.36.63-.9.63-1.63s-.22-1.23-.65-1.59-1.06-.55-1.88-.55h-2.22v4.31h2.22Z"/>
      <path class="st1" d="M218.5,95.18l8.06-18.5h5.34l7.21,18.5h-4.91l-1.32-3.6h-7.97l-1.48,3.6h-4.93ZM226.25,88.41h5.46l-2.59-7.03-2.87,7.03Z"/>
    </g>
    <g>
      <path class="st1" d="M102.16,107.06v-1.36c.46.29.85.49,1.17.6.32.11.62.17.92.17s.53-.05.68-.14c.15-.09.23-.23.23-.41,0-.15-.05-.26-.14-.35s-.32-.19-.67-.32c-.87-.31-1.47-.62-1.8-.94-.33-.32-.49-.73-.49-1.22,0-.52.21-.95.64-1.27.43-.33.98-.49,1.67-.49.35,0,.69.04,1.04.13.35.08.69.21,1.04.37v1.25c-.41-.21-.78-.36-1.11-.46-.33-.1-.62-.15-.89-.15-.29,0-.51.04-.67.13-.15.08-.23.21-.23.36,0,.13.07.25.21.36.14.11.34.22.62.32.06.02.15.06.27.1.58.22,1,.4,1.25.56.27.16.47.37.6.63.14.26.2.56.2.9,0,.57-.21,1.01-.64,1.33s-1.02.49-1.78.49c-.38,0-.75-.05-1.1-.15-.35-.1-.69-.25-1.02-.45Z"/>
      <path class="st1" d="M120.1,104.49c0-.45.08-.88.24-1.26.16-.39.4-.73.72-1.03.31-.29.66-.51,1.05-.65.39-.14.83-.21,1.31-.21s.93.07,1.32.22.75.36,1.05.65c.31.3.55.65.71,1.03.16.39.24.81.24,1.26s-.08.87-.24,1.26c-.16.39-.4.73-.71,1.02-.31.29-.67.51-1.06.66s-.83.22-1.31.22-.91-.07-1.31-.22-.74-.37-1.06-.66c-.31-.3-.55-.64-.71-1.02-.16-.39-.24-.8-.24-1.26ZM121.68,104.49c0,.54.16.99.49,1.34.33.35.75.53,1.25.53s.93-.18,1.26-.53c.33-.35.49-.8.49-1.34s-.16-1-.49-1.35c-.33-.35-.75-.53-1.26-.53s-.93.18-1.25.53-.49.8-.49,1.35Z"/>
      <path class="st1" d="M140.45,107.55v-6.11h1.53v4.93h2.64v1.18h-4.17Z"/>
      <path class="st1" d="M163.68,101.43v3.5c0,.86-.25,1.52-.76,2-.51.48-1.22.72-2.13.72s-1.62-.24-2.13-.72-.76-1.15-.76-2v-3.5h1.54v3.44c0,.49.12.86.35,1.12.23.26.57.39,1.01.39s.77-.13,1-.38c.23-.26.35-.63.35-1.12v-3.44h1.53Z"/>
      <path class="st1" d="M179.13,107.55v-4.98h-2.02v-1.14h5.66v1.14h-2.02v4.98h-1.61Z"/>
      <path class="st1" d="M196.27,107.55v-6.11h1.58v6.11h-1.58Z"/>
      <path class="st1" d="M211.58,104.49c0-.45.08-.88.24-1.26.16-.39.4-.73.72-1.03.31-.29.66-.51,1.05-.65.39-.14.83-.21,1.31-.21s.93.07,1.32.22.75.36,1.05.65c.32.3.55.65.71,1.03.16.39.24.81.24,1.26s-.08.87-.24,1.26c-.16.39-.4.73-.71,1.02-.31.29-.67.51-1.06.66-.39.15-.83.22-1.31.22s-.91-.07-1.3-.22c-.39-.15-.74-.37-1.06-.66-.31-.3-.55-.64-.71-1.02s-.24-.8-.24-1.26ZM213.15,104.49c0,.54.16.99.49,1.34.33.35.75.53,1.25.53s.93-.18,1.26-.53c.33-.35.49-.8.49-1.34s-.16-1-.49-1.35-.75-.53-1.26-.53-.92.18-1.25.53-.49.8-.49,1.35Z"/>
      <path class="st1" d="M233.43,103.7v3.84h-1.51v-6.11h1.34l3.28,3.64v-3.64h1.51v6.11h-1.2l-3.42-3.84Z"/>
    </g>
  </g>
  <polygon class="st1" points="100.43 68.34 100.43 68.34 100.52 68.37 100.43 68.34"/>
  <polygon class="st1" points="100.43 68.34 100.43 68.34 100.52 68.37 100.43 68.34"/>
  <g>
    <g>
      <path class="st0" d="M66.47,54.89h0s0,0,0,0Z"/>
      <path class="st0" d="M69.71,66.31l-1.94-.91h0c.02.1.04.21.07.32,0,.03.02.07.02.1.02.08.04.17.06.25.01.04.02.08.03.12.03.09.05.19.08.28,0,.03.02.06.03.08.04.12.08.24.14.36.01.03.03.06.04.09.04.09.09.19.13.28.02.04.04.08.07.12.05.09.11.19.16.28.02.04.05.07.07.11.09.13.18.26.28.39.01.02.03.03.04.05.09.11.2.23.31.34.04.04.08.08.12.12.1.09.2.19.31.28.05.04.1.08.15.13.14.11.28.23.44.34.03.02.05.04.08.06.19.13.39.26.61.39.06.04.13.07.19.11.17.1.34.19.52.29.08.04.17.09.25.13.07.03.12.07.19.1-.02,0-.03-.02-.05-.03.03.02.07.03.11.05-.02,0-.05-.01-.06-.02.11.05.23.1.34.15.13.06.25.12.38.17.19.08.39.16.6.24.14.05.27.11.41.16.24.09.49.17.75.26.13.05.26.09.4.14.4.13,2.93,1.05,3.38,1.17l.3-.58c-2.9-1.41-7.46-4.08-9.01-5.94Z"/>
      <path class="st0" d="M69.96,63.74c-.05-.05-.09-.11-.14-.16-.19-.22-.38-.44-.55-.67-.02-.03-.05-.06-.07-.09-.19-.25-.36-.49-.52-.74-.04-.06-.07-.11-.11-.17-.16-.25-.31-.5-.45-.75,0,0,0,0,0,0-.14-.25-.26-.5-.38-.75-.03-.06-.05-.11-.08-.17-.11-.25-.22-.49-.31-.73,0-.03-.02-.05-.03-.07-.09-.23-.16-.45-.23-.67-.02-.05-.03-.1-.05-.15-.07-.24-.14-.47-.2-.7,0-.04-.02-.08-.03-.11-.05-.21-.09-.41-.13-.62,0-.04-.02-.08-.02-.11-.04-.22-.08-.44-.11-.66,0-.04-.01-.08-.02-.13-.03-.2-.05-.39-.06-.58,0-.02,0-.03,0-.05h0s0-.01,0-.02c-.02-.24-.03-.46-.04-.68,0-.03,0-.07,0-.1,0-.21-.01-.41,0-.61,0-.03,0-.07,0-.1,0-.19,0-.37.01-.54,0-.03,0-.05,0-.08,0-.17.02-.34.03-.49l10.43,12.56s2.84,3.66,3.66,4.97c-.04.06-.82.89-.96,1.05-4.38-2.65-8.4-6.43-9.64-7.87Z"/>
      <path class="st0" d="M48.02,65.47c-2.06-2.36-3.1-4.83-3.66-6.38l18.98,9.29,1.27.6c2.74,1.31,5.1,2.68,7.09,3.97,0,0,0,0,0,0,.19.12.37.24.55.37.1.06.2.13.29.19.3.2.58.4.86.59,0,0-7.17-.26-13.21-2-5.91-1.7-10.68-4.85-12.17-6.64Z"/>
      <path class="st0" d="M70.07,84.77c-1.34.13-2.47-.12-3.15-.31l8-4.32.53-.29c1.14-.63,2.21-1.12,3.17-1.49,0,0,0,0,0,0,.09-.04.18-.07.27-.1.05-.02.09-.04.14-.05.14-.05.28-.1.42-.15,0,0-1.89,2.44-4.01,4.13-2.07,1.64-4.37,2.53-5.37,2.6Z"/>
      <path class="st0" d="M60.87,77.13c-1.72-.02-3.17-.32-4.38-.77-.11-.04-.22-.08-.33-.12-.03-.01-.06-.02-.08-.04-.62-.25-1.17-.55-1.67-.86,0,0,0,0,0,0-.16-.1-.32-.21-.47-.32-.03-.02-.05-.04-.07-.05-.2-.15-.39-.3-.56-.45-.08-.07-.16-.13-.23-.2-.06-.05-.11-.1-.16-.15-.09-.09-.18-.17-.27-.26-.04-.05-.09-.09-.13-.13-.09-.09-.17-.19-.25-.28-.03-.04-.06-.07-.09-.11-.1-.12-.2-.24-.28-.35h2.45s.26,0,.26,0c2.8,1.31,6.19,2.17,10.26,2.2,4.1.08,8.49-.49,8.49-.49l-.35.99s-3.34.8-6.74,1.21c-2.32.28-4.96.22-5.38.19Z"/>
      <path class="st0" d="M76.8,75.56l-10.3,3.13c-.67.21-1.32.38-1.95.54l-6.74,1.81c.79,1.39,4.45,3.69,9.16,1.87,1.35-.49,2.92-1.26,2.92-1.26l7.72-4.26-.8-1.82Z"/>
    </g>
    <g>
      <polygon class="st1" points="100.24 68.33 100.24 68.33 100.33 68.37 100.24 68.33"/>
      <path class="st1" d="M80.06,90.25s0,0,.01,0c0,0,0,0-.01,0Z"/>
    </g>
    <g>
      <path class="st0" d="M87.94,97.42s0,0,0,0c0,0-.01,0-.02-.01,0,0,0,0,0,0Z"/>
      <path class="st0" d="M97.53,66.52l-.07-.08c-.68-.85-3.19-3.61-6.85-3.61-2.87,0-5.8,1.7-8.69,5.06l-.4.47h0c-1.52,1.82-6.64,8.05-8.44,16.9h0s-1.65,6.46,3.57,14.98l.46.74-.03-.05.04.06.02.03c.6,1.02,6.18,10.12,15.83,15.74h.03s.36.3.36.3v-.38c-.01-.06-.06-1.41-1.52-4l-.71-1.26,4.77,2.61-.12-.39c-.06-.19-1.47-4.8-6.26-9.52l-.86-.89,2.59.77-.13-.36s-.73-1.99-3.04-3.96l-.81-.69,2.55-.1c-.19-1.46-3.7-5.04-10.42-5.71l.03-1.72c4.74.08,7.39-5.16,9.76-11.14.66-1.68,1.85-5.4,3.53-7.91l.03-.05c1.07-1.72,2.96-2.86,5.1-2.86,0,0,.17,0,.35.02l9.48,1.2-10.13-4.17ZM91.26,113.45c.56,1.06.85,1.96.85,1.96-2.65-2.04-5.67-4.73-7.93-7.17-1.38-1.43-2.21-2.49-2.05-2.31-2.32-2.61-3.75-5.01-4.42-5.84,5.39,3.86,8.73,6.99,10.85,9.48,0,0,0,0-.01,0,0,0,0,0,0,0,1.05,1.24,1.8,2.32,2.35,3.26,0,0,0,0,0,0,0,0,.05.07.35.63ZM93.98,111.54l-1.72-.84h0s-1.63-.8-1.63-.8c-.08-.11-.17-.22-.26-.33.05.06.1.12.14.18-2.04-2.64-5.4-6.08-10.93-10.21,1.96.77,3.68,1.65,5.2,2.58,0,0,0,0,0,0,1.14.7,2.16,1.43,3.08,2.17h0c3.4,2.73,5.29,5.56,6.14,7.25ZM79.57,94.58c4.67.25,7.12,1.63,8.38,2.84.31.3.55.59.73.85l-1.33-.02c-.18-.13-2.99-2.04-7.78-3.63,0-.01,0-.02,0-.03ZM89.58,102.6l-1.47-.65s0,0,0,0c0,0,0,0,0,0l-1.47-.65c-.17-.13-.35-.27-.52-.4-2.14-1.63-4.66-3.17-7.65-4.47,0,0,6.81.72,11.1,6.17ZM97.06,68.78s-5.48-.51-8.81,4.99c0,0,2.18-1.57,4.09-2.23-.68.81-1.26,1.71-1.74,2.61,0,0,0,0,0,0-.24.45-.75,1.81-1.49,3.55,0-.01.01-.03.02-.04-3.66,11.4-8.35,12.87-10.2,12.46-.79-.17-1.03-.55-1.03-.55l.02,1.18c.04,2.96-.23,5.47-1.08,6.57-3.69-6.64-3.44-10.45-1.63-13.72,0,0-.23,3.19.54,4.16-.46-3.73,2.26-6.5,2.26-6.5,0,0,1.41-.49,1.79-.82,0,0-.28,1.74-1.03,3.43,0,0,3.72-1.88,3.66-7.69l-2.03-1.27-1.69-1.06c1.48-2.65,2.72-3.88,2.72-3.89l.05-.04.03-.04s0,0,0,0h0c2.84-3.76,5.42-5.44,7.64-5.97.67-.16,1.3-.21,1.89-.19.4.01.78.06,1.14.14.73.15,1.39.42,1.97.73.29.16.56.32.81.5.13.09.25.17.36.26.23.18.44.35.63.53.76.69,1.17,1.27,1.17,1.28l.12.16,2.99,1.02s0,0,0,0h0s0,0,0,0l2.38.82,2.64.91-6.63-1.08c-.54-.13-1.06-.2-1.56-.2Z"/>
    </g>
  </g>
</svg>